<?xml version="1.0" encoding="UTF-8"?>
<svg xmlns="http://www.w3.org/2000/svg" version="1.1" viewBox="0 0 86.75 96.55">
  <path fill="#000" fill-rule="evenodd" d="M56.17,15.35s.03.15.12.18c20.94,8.03,29.6,34.71,14.66,53.64-10.27,13.02-27.67,17.06-43.14,9.59l-17.84,4.74c-1.63.41-2.4-.11-1.99-1.84l5.58-16.47c-.21-.41-.35-.88-.54-1.29-.5-1.09-1.26-2.3-1.82-3.81C.9,32.07,27.91,4.8,56.17,15.35ZM51.41,54.68c-1.15.98-2.85,1.21-4.09.26l-10.87-10.94c-1.26-2.04-.03-3.48,1.43-4.85,1.65-1.54,3.02-1.8,2.53-4.6-.33-1.87-4-6.55-5.49-7.86-3.82-3.36-6.31-1.61-9.21,1.63-6.69,7.5-3.53,14.59,2.45,21.14,4.08,4.48,9.4,9.78,13.87,13.87,5.68,5.19,13.09,9.1,20.03,3.4,1-.82,3.84-3.53,4.26-4.64,1.45-3.83-2.79-7.01-5.53-8.91-1.79-1.25-4.23-3.07-6.47-1.75-1.01.6-1.97,2.44-2.91,3.24Z"/>
</svg>
